<?xml version="1.0" encoding="UTF-8"?>
<svg version="1.1" xmlns="http://www.w3.org/2000/svg" width="236" height="236">
<path d="M0 0 C77.88 0 155.76 0 236 0 C236 77.88 236 155.76 236 236 C158.12 236 80.24 236 0 236 C0 158.12 0 80.24 0 0 Z " fill="none" transform="translate(0,0)"/>
<path d="M0 0 C77.88 0 155.76 0 236 0 C236 77.88 236 155.76 236 236 C158.12 236 80.24 236 0 236 C0 158.12 0 80.24 0 0 Z M121 10 C121.33 21.55 121.66 33.1 122 45 C120.27732488 41.55464976 121.04507933 37.6359885 121.16015625 33.84765625 C121.22993839 30.79554586 121.22993839 30.79554586 119 28 C118.5859375 25.08203125 118.5859375 25.08203125 118.375 21.8125 C118.26285156 20.18248047 118.26285156 20.18248047 118.1484375 18.51953125 C118.09945312 17.68808594 118.05046875 16.85664063 118 16 C116.68 16 115.36 16 114 16 C113.67 16.99 113.34 17.98 113 19 C112.34 19 111.68 19 111 19 C110.67 19.66 110.34 20.32 110 21 C109.505 18.03 109.505 18.03 109 15 C108.25621094 15.42667969 107.51242188 15.85335938 106.74609375 16.29296875 C101.16369701 19.48950053 95.57818248 22.67919359 89.96875 25.828125 C77.11970059 33.04680924 64.37731699 40.43141767 51.67527771 47.90435791 C50.77640587 48.43316559 50.77640587 48.43316559 49.859375 48.97265625 C49.26814346 49.32052185 48.67691193 49.66838745 48.06776428 50.02679443 C42.20752049 53.47171755 36.32369746 56.87560392 30.42285156 60.25048828 C29.065683 61.03094235 27.71920764 61.83025964 26.38354492 62.64697266 C24 64 24 64 20.6105957 65.50537109 C16.92477669 67.24901872 13.91921418 69.09180071 11 72 C9.40432324 77.58861615 9.75336115 82.75852952 10.1875 88.5 C10.2527991 90.00495784 10.3120994 91.5101886 10.36523438 93.015625 C10.50765399 96.6828077 10.73132408 100.33964836 11 104 C12.99954746 104.04254356 15.00041636 104.04080783 17 104 C17.495 103.505 17.495 103.505 18 103 C18.33 103.66 18.66 104.32 19 105 C18.34 105 17.68 105 17 105 C16.505 105.99 16.505 105.99 16 107 C14.1875 107.2734375 14.1875 107.2734375 12 107.375 C9.86551795 107.55515335 9.86551795 107.55515335 8 108 C6.20675107 110.95358647 7.21304556 113.77348681 8 117 C10.13760838 126.03768247 9.21667599 135.74724726 8.12109375 144.890625 C7.8211583 147.05710063 7.8211583 147.05710063 9 149 C10.68996094 149.37898438 10.68996094 149.37898438 12.4140625 149.765625 C17.98135015 151.04563166 22.49429182 153.86625287 27.375 156.75 C29.4230635 157.93474231 31.47260001 159.1169411 33.5234375 160.296875 C35.11623535 161.21436523 35.11623535 161.21436523 36.74121094 162.15039062 C42.10897762 165.19700438 47.55410485 168.09609254 53 171 C62.47183496 176.06383485 71.86453679 181.24739397 81.18652344 186.58227539 C85.15991769 188.85243427 89.12569277 191.10026339 93.21484375 193.15625 C94.38144531 193.7440625 95.54804687 194.331875 96.75 194.9375 C98.19632813 195.63166016 98.19632813 195.63166016 99.671875 196.33984375 C102.63774727 198.45476945 103.61490827 200.68039683 105 204 C105.33 203.34 105.66 202.68 106 202 C106.433125 202.474375 106.86625 202.94875 107.3125 203.4375 C109.02309613 205.23686957 109.02309613 205.23686957 112 206 C114.16715557 205.12516085 114.16715557 205.12516085 116 204 C116 205.32 116 206.64 116 208 C116.66 208 117.32 208 118 208 C118.12375 206.865625 118.2475 205.73125 118.375 204.5625 C118.58125 203.386875 118.7875 202.21125 119 201 C119.66 200.67 120.32 200.34 121 200 C121.33 201.98 121.66 203.96 122 206 C121.34 206 120.68 206 120 206 C120 206.66 120 207.32 120 208 C121.32 208 122.64 208 124 208 C124.33 207.34 124.66 206.68 125 206 C125.33 206.66 125.66 207.32 126 208 C127.8443269 208.27943798 127.8443269 208.27943798 130.03515625 208.1953125 C130.84404297 208.18886719 131.65292969 208.18242187 132.48632812 208.17578125 C133.33646484 208.15902344 134.18660156 208.14226562 135.0625 208.125 C135.91650391 208.11597656 136.77050781 208.10695312 137.65039062 208.09765625 C139.76704527 208.07400648 141.88355676 208.03813411 144 208 C144 207.34 144 206.68 144 206 C138.72 206 133.44 206 128 206 C128.66 204.68 129.32 203.36 130 202 C129.34 202 128.68 202 128 202 C128 201.01 128 200.02 128 199 C130.1394043 198.01269531 130.1394043 198.01269531 133 197 C134.93996512 195.96310728 136.86188158 194.89208452 138.76953125 193.796875 C139.89439941 193.15282715 141.01926758 192.5087793 142.17822266 191.84521484 C143.38973116 191.14695341 144.60115502 190.44854509 145.8125 189.75 C147.06288562 189.03188502 148.31337519 188.31395101 149.56396484 187.59619141 C159.65212114 181.80015582 169.71411542 175.95865218 179.7578125 170.0859375 C181.06335083 169.32385986 181.06335083 169.32385986 182.39526367 168.54638672 C184.18352284 167.48472831 185.95925373 166.40176684 187.72387695 165.30126953 C188.5974585 164.75841309 189.47104004 164.21555664 190.37109375 163.65625 C191.53016235 162.92245117 191.53016235 162.92245117 192.71264648 162.17382812 C197.26989654 159.83513048 201.99385315 160 207 160 C208.89692612 159.84626937 210.79272833 159.67833145 212.6875 159.5 C213.68136719 159.4071875 214.67523438 159.314375 215.69921875 159.21875 C216.45847656 159.1465625 217.21773437 159.074375 218 159 C218 156.03 218 153.06 218 150 C219.65 150.33 221.3 150.66 223 151 C223 149.68 223 148.36 223 147 C223.33 146.01 223.66 145.02 224 144 C224.08378628 141.7161483 224.10729915 139.429899 224.09765625 137.14453125 C224.0962413 136.48289474 224.09482635 135.82125824 224.09336853 135.13957214 C224.08777996 133.03050172 224.07522965 130.92153823 224.0625 128.8125 C224.05748352 127.38086091 224.05292087 125.94922015 224.04882812 124.51757812 C224.0378143 121.01168412 224.02055755 117.5058525 224 114 C221.11075781 114 218.68785049 114.14003766 215.875 114.5625 C212 115 212 115 210 114 C209.34 114.99 208.68 115.98 208 117 C205.875 117.6875 205.875 117.6875 204 118 C204 118.99 204 119.98 204 121 C204.33 121.33 204.66 121.66 205 122 C204.01 122 203.02 122 202 122 C201.67 121.34 201.34 120.68 201 120 C200.34 119.34 199.68 118.68 199 118 C207.48722366 111.14863578 207.48722366 111.14863578 212 108.8125 C215.13801953 107.37332392 215.13801953 107.37332392 215.625 104.9375 C215.810625 103.9784375 215.810625 103.9784375 216 103 C216.80671143 102.60224365 217.61342285 102.2044873 218.44458008 101.79467773 C221.27502118 100.19756433 221.27502118 100.19756433 221.91674805 97.00415039 C223.91933763 81.15179839 223.91933763 81.15179839 219.25390625 66.60888672 C214.26604775 62.56885282 208.30397145 60.51848565 202.33251953 58.33154297 C196.45612751 55.98356919 191.09520139 52.72072109 185.625 49.5625 C183.34504209 48.28701841 181.06248344 47.01617454 178.77734375 45.75 C177.65312012 45.12609375 176.52889648 44.5021875 175.37060547 43.859375 C169.00188159 40.34610533 162.59777604 36.8983319 156.19335938 33.45068359 C149.52568328 29.85317132 142.93905778 26.14287473 136.4140625 22.29296875 C134.16257842 20.84261925 134.16257842 20.84261925 132 21 C131.896875 20.38125 131.79375 19.7625 131.6875 19.125 C131.12474627 16.63473516 131.12474627 16.63473516 128 15 C127.505 14.01 127.505 14.01 127 13 C125.68 13 124.36 13 123 13 C123 12.34 123 11.68 123 11 C123.66 10.67 124.32 10.34 125 10 C123.68 10 122.36 10 121 10 Z " fill="none" transform="translate(0,0)"/>
<path d="M0 0 C3.76721508 25.7933489 3.76721508 25.7933489 -1.95263672 33.69873047 C-7.45311532 38.45512101 -13.96776923 41.3998697 -20.55273438 44.37402344 C-26.1878665 47.03195403 -31.39560111 50.35018704 -36.6875 53.625 C-38.7507242 54.86121598 -40.81581846 56.09431645 -42.8828125 57.32421875 C-51.98764496 62.77576992 -60.99703531 68.38229934 -70 74 C-61.60584239 78.89166579 -53.11624599 83.58121313 -44.5625 88.1875 C-33.45848742 94.17036763 -22.46806793 100.33962904 -11.50830078 106.58203125 C-8.25253845 108.42254786 -4.97644289 110.2251373 -1.69506836 112.01953125 C0 113 0 113 1 114 C1.08783542 116.21855264 1.10694609 118.43988496 1.09765625 120.66015625 C1.0962413 121.32462265 1.09482635 121.98908905 1.09336853 122.6736908 C1.08775518 124.80333899 1.07520054 126.93288339 1.0625 129.0625 C1.05748671 130.50325369 1.05292351 131.94400903 1.04882812 133.38476562 C1.03778145 136.92321102 1.02050792 140.46159539 1 144 C-3.0948037 141.81949125 -7.18839727 139.63674229 -11.28076172 137.45166016 C-13.24311452 136.40406186 -15.20570976 135.35691764 -17.16845703 134.31005859 C-29.85510048 127.54131974 -42.53504742 120.76763164 -55.08203125 113.7421875 C-59.13087484 111.47721008 -63.1949618 109.24040803 -67.26171875 107.0078125 C-68.56975696 106.28900682 -69.87778094 105.57017524 -71.18579102 104.85131836 C-73.13464577 103.78033639 -75.08385215 102.71002816 -77.03439331 101.64212036 C-77.65073639 101.30461761 -78.26707947 100.96711487 -78.90209961 100.61938477 C-79.50463562 100.289702 -80.10717163 99.96001923 -80.72796631 99.62034607 C-82.4662216 98.65970385 -84.19169641 97.67604989 -85.91674805 96.69189453 C-88.86611641 94.99647575 -88.86611641 94.99647575 -91.59301758 93.94482422 C-94.03642117 92.85734986 -95.35320501 92.11874937 -97 90 C-98.372014 84.91145616 -98.51105498 79.97680465 -98.4375 74.75 C-98.43304871 74.03770233 -98.42859741 73.32540466 -98.42401123 72.59152222 C-98.20232389 59.28593852 -98.20232389 59.28593852 -94.54296875 55.51953125 C-91.26612666 53.64330509 -88.15854944 52.34442342 -84.61572266 51.08886719 C-79.15374639 48.8151679 -74.28721583 45.35820997 -69.3125 42.1875 C-67.05344462 40.78865837 -64.79173157 39.39409938 -62.52734375 38.00390625 C-60.87387939 36.98707764 -60.87387939 36.98707764 -59.18701172 35.94970703 C-54.60116762 33.1442412 -49.99104202 30.38040668 -45.375 27.625 C-35.08763038 21.47976321 -24.93481475 15.13596627 -14.8203125 8.7109375 C-13.50945679 7.87949219 -13.50945679 7.87949219 -12.17211914 7.03125 C-10.4563625 5.94230875 -8.74196434 4.85122355 -7.02905273 3.7578125 C-6.25762939 3.26796875 -5.48620605 2.778125 -4.69140625 2.2734375 C-4.00248291 1.83435059 -3.31355957 1.39526367 -2.60375977 0.94287109 C-1 0 -1 0 0 0 Z " fill="#a0b4c5" transform="translate(109,58)"/>
<path d="M0 0 C4.5195121 1.44822408 8.47480686 3.23937215 12.5625 5.625 C13.98617234 6.44021274 15.41072699 7.25388565 16.8359375 8.06640625 C17.64256836 8.5267627 18.44919922 8.98711914 19.28027344 9.46142578 C24.72384053 12.54090153 30.20881021 15.54612036 35.6875 18.5625 C36.93672223 19.25091119 38.18590809 19.93938837 39.43505859 20.62792969 C41.99559749 22.03920986 44.55631716 23.45016119 47.1171875 24.86083984 C50.33796877 26.63512427 53.55850052 28.40985952 56.77828979 30.1859436 C58.04675279 30.88510777 59.31573186 31.58333648 60.5852356 32.28060913 C63.68062268 33.98240767 66.76530708 35.69927735 69.83154297 37.453125 C75.05072666 40.41990822 80.12767376 43.17548095 85.8203125 45.13671875 C95.1981443 48.58276826 95.1981443 48.58276826 98 53 C100.82769773 62.65415993 101.84052637 76.90022534 96.89990234 86.03369141 C93.87015989 89.21519996 89.70852629 90.44535998 85.67529297 91.88574219 C80.66967684 93.97057811 76.17334438 97.00920846 71.59365845 99.8868103 C68.58627717 101.76636563 65.54939384 103.59705907 62.515625 105.43359375 C61.26875194 106.19103237 60.02200791 106.94868346 58.77539062 107.70654297 C54.99193951 110.00531923 51.20702502 112.3016788 47.421875 114.59765625 C45.56504051 115.72418139 43.70822356 116.85073543 41.85140991 117.97729492 C40.1267562 119.02352031 38.40188331 120.06938434 36.67700195 121.11523438 C31.1334641 124.47922267 25.59587595 127.85267031 20.0703125 131.24609375 C19.05340332 131.87056396 18.03649414 132.49503418 16.98876953 133.13842773 C13.00412294 135.62028774 9.06968825 138.17537286 5.14453125 140.75 C3 142 3 142 1 142 C-2.27879846 116.93460661 -2.27879846 116.93460661 2.60986328 109.57714844 C7.2821499 105.38820182 12.99861539 103.03136572 18.70068359 100.54492188 C24.15338749 97.99166523 29.17856765 94.74919549 34.27096558 91.55535889 C37.22286938 89.71346746 40.20134319 87.91589531 43.1796875 86.1171875 C44.04372444 85.59404465 44.04372444 85.59404465 44.92521667 85.06033325 C48.67077036 82.79466303 52.42922919 80.55165891 56.1953125 78.3203125 C57.12980225 77.76545166 58.06429199 77.21059082 59.02709961 76.63891602 C60.75692967 75.61390797 62.48938488 74.59331286 64.22485352 73.57788086 C64.97951904 73.13065674 65.73418457 72.68343262 66.51171875 72.22265625 C67.16615967 71.83859619 67.82060059 71.45453613 68.49487305 71.05883789 C70.16764484 70.05989964 70.16764484 70.05989964 71 68 C70.29182129 67.73082764 69.58364258 67.46165527 68.85400391 67.18432617 C65.90586076 65.96093503 63.14913679 64.5582674 60.3359375 63.05078125 C59.22661865 62.4570874 58.1172998 61.86339355 56.97436523 61.25170898 C55.77447156 60.60550141 54.5746858 59.95909342 53.375 59.3125 C52.76439728 58.98452423 52.15379456 58.65654846 51.52468872 58.31863403 C38.93746234 51.55740071 26.35620367 44.74962754 13.98510742 37.59960938 C11.02450845 35.93277824 11.02450845 35.93277824 7.8059082 34.77539062 C4.62502723 33.46962787 2.4389972 32.43379493 0 30 C-1.35569846 24.82338157 -1.04396716 19.89680079 -0.6875 14.625 C-0.63227236 13.20722064 -0.58209079 11.78923517 -0.53710938 10.37109375 C-0.41635899 6.90975498 -0.22692154 3.45618967 0 0 Z " fill="#96a1ab" transform="translate(123,16)"/>
<path d="M0 0 C3.13308503 26.36852563 3.13308503 26.36852563 -1.56005859 33.30615234 C-6.05382514 37.04169792 -11.52753326 38.81740092 -16.96728516 40.77539062 C-22.38304442 42.96227265 -27.18961016 46.15672516 -32.125 49.25 C-34.2485876 50.53963671 -36.37492933 51.82474848 -38.50390625 53.10546875 C-39.5727002 53.74919434 -40.64149414 54.39291992 -41.74267578 55.05615234 C-48.21287583 58.91732254 -54.7500304 62.66238393 -61.28564453 66.41137695 C-66.84085481 69.59860616 -72.38424614 72.80359444 -77.90234375 76.0546875 C-79.0102124 76.70622803 -80.11808105 77.35776855 -81.25952148 78.02905273 C-83.37959851 79.2776508 -85.49768631 80.52963422 -87.61352539 81.78540039 C-88.55574951 82.3396167 -89.49797363 82.89383301 -90.46875 83.46484375 C-91.29826172 83.955896 -92.12777344 84.44694824 -92.98242188 84.95288086 C-95 86 -95 86 -97 86 C-98.41172262 76.14627052 -99.75292562 65.71445568 -97 56 C-92.18881732 49.71101756 -84.36776508 47.18478599 -77.21582031 44.35986328 C-72.09253722 42.19339753 -67.47284515 39.29231222 -62.75 36.375 C-60.91492111 35.28022423 -59.0777044 34.1890233 -57.23828125 33.1015625 C-56.35479004 32.57723633 -55.47129883 32.05291016 -54.56103516 31.51269531 C-50.70123505 29.23287439 -46.82088462 26.98933943 -42.9375 24.75 C-35.10372475 20.2295236 -27.29158279 15.67265119 -19.48733521 11.10144043 C-18.16939082 10.32954813 -16.85125719 9.55797886 -15.53292847 8.78674316 C-13.67764697 7.70122146 -11.82309202 6.61446933 -9.96875 5.52734375 C-8.89044922 4.89562256 -7.81214844 4.26390137 -6.70117188 3.61303711 C-0.65082488 0 -0.65082488 0 0 0 Z " fill="#aba0a1" transform="translate(109,15)"/>
<path d="M0 0 C1.619785 9.8768547 3.02305559 20.28869818 0 30 C-5.55313418 36.90327807 -14.32982195 39.96888577 -22.29150391 43.34472656 C-28.33860418 45.96170663 -33.91268425 49.44385801 -39.5625 52.8125 C-41.736506 54.07078054 -43.91223812 55.32608437 -46.08984375 56.578125 C-51.59644514 59.76169718 -57.0853997 62.97395751 -62.56347656 66.20629883 C-68.97052815 69.98677411 -75.38965647 73.74642114 -81.8125 77.5 C-82.85809082 78.11238525 -83.90368164 78.72477051 -84.98095703 79.35571289 C-85.96306152 79.92926514 -86.94516602 80.50281738 -87.95703125 81.09375 C-89.27151245 81.86235352 -89.27151245 81.86235352 -90.61254883 82.64648438 C-92.71322379 83.83741821 -94.82846175 84.94522588 -97 86 C-97.22359275 81.83773496 -97.38625784 77.67869784 -97.49438477 73.51220703 C-97.5394723 72.09752509 -97.60076961 70.68325869 -97.67895508 69.27001953 C-98.30596132 57.6396685 -98.30596132 57.6396685 -95.34326172 53.91992188 C-92.97468017 52.308843 -90.61712924 51.16162504 -88 50 C-86.22127479 48.98770121 -84.45060441 47.96114159 -82.6875 46.921875 C-80.79334795 45.86157424 -78.89745002 44.80438756 -77 43.75 C-68.13467384 38.78002314 -59.34105687 33.71194896 -50.59667969 28.53320312 C-47.43545235 26.66666423 -44.26893299 24.8092114 -41.1015625 22.953125 C-40.48532516 22.59200119 -39.86908783 22.23087738 -39.23417664 21.85881042 C-36.05703087 19.99732332 -32.87938088 18.13669965 -29.70141602 16.27661133 C-24.2667979 13.09463141 -18.83480768 9.90899471 -13.42578125 6.68359375 C-12.23275391 5.97396484 -12.23275391 5.97396484 -11.015625 5.25 C-9.59023831 4.40083346 -8.16691207 3.54819461 -6.74609375 2.69140625 C-2.22224069 0 -2.22224069 0 0 0 Z " fill="#b39496" transform="translate(221,116)"/>
<path d="M0 0 C1.32 0.33 2.64 0.66 4 1 C3.34 1 2.68 1 2 1 C2 1.66 2 2.32 2 3 C3.32 3 4.64 3 6 3 C6.99 4.485 6.99 4.485 8 6 C8.99 6.66 9.98 7.32 11 8 C11 8.66 11 9.32 11 10 C7.89656201 8.79310745 4.98806107 7.49403054 2 6 C2 15.57 2 25.14 2 35 C1.67 35 1.34 35 1 35 C0.505 17.675 0.505 17.675 0 0 Z " fill="none" transform="translate(121,10)"/>
<path d="M0 0 C0 3.51716303 -0.82445585 4.37121748 -3 7 C-4.32 6.01 -5.64 5.02 -7 4 C-4.69 2.68 -2.38 1.36 0 0 Z " fill="none" transform="translate(103,48)"/>
</svg>
