<?xml version="1.0" encoding="UTF-8"?>
<svg version="1.1" xmlns="http://www.w3.org/2000/svg" width="1064" height="261">
<path d="M0 0 C351.12 0 702.24 0 1064 0 C1064 86.13 1064 172.26 1064 261 C712.88 261 361.76 261 0 261 C0 174.87 0 88.74 0 0 Z " fill="none" transform="translate(0,0)"/>
<path d="M0 0 C1.23805138 -0.00855011 1.23805138 -0.00855011 2.50111389 -0.01727295 C4.24853241 -0.02670049 5.99596852 -0.03324799 7.7434082 -0.03710938 C10.3702873 -0.046729 12.996354 -0.07773703 15.62304688 -0.109375 C28.9676725 -0.19387218 42.14710318 0.27523785 53.47265625 8.203125 C54.0965625 8.63367188 54.72046875 9.06421875 55.36328125 9.5078125 C64.97330771 16.9033546 69.08839984 28.82019001 71.00537109 40.42919922 C71.74469448 46.40018195 71.73595975 52.37095278 71.76782227 58.37866211 C71.77925552 59.87062123 71.79956753 61.36254231 71.8293457 62.85424805 C72.18044697 80.51719192 69.24111089 97.89268639 56.703125 111.23046875 C45.08675117 121.50414438 28.85224776 122.4409425 14.16015625 122.453125 C13.07610504 122.45413712 13.07610504 122.45413712 11.97015381 122.45516968 C-5.20180198 122.42960408 -21.47724445 121.53955586 -34.7109375 109.21484375 C-49.82447077 92.47619938 -48.25519988 68.21277683 -47.52734375 47.203125 C-46.80217363 33.33104724 -42.71673246 20.03624137 -32.52734375 10.203125 C-22.80673391 2.8029188 -12.04171177 0.06532924 0 0 Z " fill="#2F4153" transform="translate(800.52734375,67.796875)"/>
<path d="M0 0 C1.13427429 -0.00540298 2.26854858 -0.01080597 3.43719482 -0.01637268 C7.17747296 -0.02885333 10.91698017 -0.01236797 14.65722656 0.00561523 C17.26645956 0.00546019 19.87569278 0.0039703 22.48492432 0.00120544 C27.95227994 -0.00149246 33.41941552 0.01193715 38.88671875 0.03515625 C45.18231331 0.06171023 51.47753893 0.06352856 57.77317023 0.05176789 C63.85526537 0.04093352 69.93720744 0.04732791 76.01929474 0.06132317 C78.59474554 0.06582238 81.17020714 0.06618792 83.74565887 0.06225777 C87.35670221 0.05932766 90.96715636 0.07594124 94.578125 0.09765625 C95.6309668 0.0931546 96.68380859 0.08865295 97.76855469 0.08401489 C107.84587262 0.18403954 118.43810809 2.12102403 126.54785156 8.50170898 C137.75464851 20.5588271 136.96687109 35.05404512 136.84082031 50.48217773 C136.8352161 52.50669539 136.83094991 54.53121715 136.82795715 56.55574036 C136.81657334 61.85099779 136.78716257 67.14600332 136.75384521 72.44116211 C136.72300412 77.85779413 136.70942197 83.27446736 136.69433594 88.69116211 C136.66228599 99.29480549 136.60957166 109.89819675 136.54785156 120.50170898 C128.62785156 120.50170898 120.70785156 120.50170898 112.54785156 120.50170898 C112.52803223 118.05434326 112.50821289 115.60697754 112.48779297 113.08544922 C112.42079713 104.98686708 112.34315892 96.88841192 112.26032448 88.78997707 C112.21044199 83.88133492 112.1641113 78.97271344 112.12597656 74.06396484 C112.08902203 69.32412532 112.04263464 64.58446228 111.98978806 59.84477425 C111.97129806 58.0391761 111.95617032 56.2335402 111.9445076 54.42788506 C111.92755253 51.89298419 111.89849579 49.35848277 111.86669922 46.82373047 C111.86453903 46.08213684 111.86237885 45.34054321 111.8601532 44.57647705 C111.73825439 36.93743003 109.92113036 30.83878173 105.23535156 24.81420898 C96.09588435 17.70573448 77.12968388 21.50170898 69.54785156 21.50170898 C69.21785156 54.17170898 68.88785156 86.84170898 68.54785156 120.50170898 C60.62785156 120.50170898 52.70785156 120.50170898 44.54785156 120.50170898 C44.54785156 87.50170898 44.54785156 54.50170898 44.54785156 20.50170898 C23.19053019 19.46523782 23.19053019 19.46523782 2.54785156 22.50170898 C2.5375441 23.71471176 2.52723663 24.92771454 2.51661682 26.17747498 C2.41906318 37.58222817 2.31634671 48.98692459 2.20851231 60.39158535 C2.1532349 66.25550347 2.09980734 72.11942652 2.05053711 77.98339844 C2.00296445 83.63737043 1.95062449 89.29127965 1.89491081 94.94517708 C1.87445499 97.10742705 1.85574738 99.26969427 1.83877754 101.43197441 C1.81480472 104.44934223 1.78474081 107.46659018 1.75317383 110.48388672 C1.74741837 111.38731308 1.7416629 112.29073944 1.73573303 113.22154236 C1.66190372 119.38765682 1.66190372 119.38765682 0.54785156 120.50170898 C-1.2328609 120.58897121 -3.01697984 120.6086994 -4.79980469 120.59936523 C-5.87939453 120.59614258 -6.95898438 120.59291992 -8.07128906 120.58959961 C-9.20759766 120.5812207 -10.34390625 120.5728418 -11.51464844 120.56420898 C-12.65482422 120.55969727 -13.795 120.55518555 -14.96972656 120.55053711 C-17.79725195 120.53870646 -20.62467484 120.52222308 -23.45214844 120.50170898 C-23.56915548 106.55852812 -23.65688837 92.61542383 -23.7112093 78.67185211 C-23.73728303 72.19699556 -23.7726418 65.72246924 -23.8293457 59.24780273 C-23.88374278 52.99729677 -23.9135857 46.74710811 -23.92653465 40.49638367 C-23.93576055 38.11377468 -23.95377669 35.73118272 -23.98079872 33.34870911 C-24.01718968 30.00675164 -24.02208935 26.66609889 -24.01977539 23.32397461 C-24.03775177 22.34285706 -24.05572815 21.3617395 -24.07424927 20.35089111 C-24.02590391 13.88175046 -22.87129662 9.36179985 -18.45214844 4.50170898 C-12.6033286 -0.1608219 -7.29159095 -0.06644575 0 0 Z " fill="#2F4153" transform="translate(424.4521484375,68.498291015625)"/>
<path d="M0 0 C0.98109741 -0.00571014 1.96219482 -0.01142029 2.97302246 -0.01730347 C4.5860022 -0.01898026 4.5860022 -0.01898026 6.23156738 -0.02069092 C7.93210266 -0.02813828 7.93210266 -0.02813828 9.66699219 -0.03573608 C13.42875776 -0.05037491 17.19048109 -0.05716421 20.95227051 -0.06268311 C23.56722006 -0.06843514 26.18216961 -0.07419287 28.79711914 -0.07995605 C33.58608508 -0.08952992 38.37504192 -0.09542444 43.16401625 -0.09845281 C50.19124413 -0.10292168 57.21827634 -0.1204133 64.24544477 -0.1494534 C70.34671099 -0.17378305 76.44789727 -0.18140256 82.54920959 -0.18312836 C85.13583946 -0.18614687 87.72246865 -0.1941482 90.30906677 -0.20731354 C93.9396318 -0.2244664 97.5697277 -0.22247046 101.20031738 -0.21600342 C102.25944336 -0.2252182 103.31856934 -0.23443298 104.40979004 -0.243927 C115.46659599 -0.18257427 125.57363349 2.09864184 133.91711426 9.66778564 C141.35263634 17.5483265 143.39207397 27.47108538 143.3470459 37.94805908 C143.34719193 38.83621811 143.34733795 39.72437714 143.3474884 40.63945007 C143.34679231 43.57209728 143.33901408 46.5046808 143.33117676 49.43731689 C143.3293115 51.47184209 143.32788811 53.50636774 143.32688904 55.54089355 C143.32307235 60.89368939 143.31324927 66.24645806 143.30218506 71.59924316 C143.29195273 77.06219109 143.28738751 82.5251434 143.28234863 87.98809814 C143.27162626 98.70555991 143.2540363 109.42299439 143.23352051 120.14044189 C134.98352051 120.14044189 126.73352051 120.14044189 118.23352051 120.14044189 C118.21164673 116.34093018 118.21164673 116.34093018 118.18933105 112.46466064 C118.1389063 104.07867468 118.07229729 95.69287285 117.9978056 87.30706787 C117.95315236 82.22468666 117.91388508 77.14238468 117.88708496 72.05987549 C117.8610017 67.1513953 117.8205637 62.24322081 117.77033424 57.33493042 C117.75369949 55.46597101 117.74216415 53.59695876 117.7359066 51.72793579 C117.72622852 49.10209397 117.69812554 46.47702831 117.66589355 43.85137939 C117.66732864 43.08532883 117.66876373 42.31927826 117.67024231 41.53001404 C117.56257952 35.2942631 116.31401209 29.77573123 112.35852051 24.76544189 C101.97588571 16.82577999 87.26137159 20.54137026 75.23352051 20.14044189 C75.23352051 53.14044189 75.23352051 86.14044189 75.23352051 120.14044189 C67.31352051 120.14044189 59.39352051 120.14044189 51.23352051 120.14044189 C50.90352051 87.47044189 50.57352051 54.80044189 50.23352051 21.14044189 C37.03352051 21.14044189 23.83352051 21.14044189 10.23352051 21.14044189 C8.40803618 26.35536874 8.40803618 26.35536874 7.95504761 31.39260864 C7.94388412 32.18337296 7.93272064 32.97413727 7.92121887 33.78886414 C7.91905869 34.63691116 7.9168985 35.48495819 7.91467285 36.35870361 C7.90462723 37.26666183 7.8945816 38.17462006 7.88423157 39.11009216 C7.85345999 42.09676509 7.83638113 45.08334861 7.81945801 48.07012939 C7.80074152 50.14664475 7.78116775 52.22315255 7.76077271 54.2996521 C7.70949635 59.75428807 7.66984648 65.20894869 7.63262939 70.66369629 C7.59256162 76.23413162 7.54148191 81.80446482 7.49133301 87.37481689 C7.39462685 98.29662721 7.31122317 109.21847983 7.23352051 120.14044189 C-0.68647949 120.14044189 -8.60647949 120.14044189 -16.76647949 120.14044189 C-16.85684093 106.03224159 -16.93023071 91.92423342 -16.97372818 77.81580925 C-16.99460455 71.26473109 -17.02292385 64.71386115 -17.0682373 58.16290283 C-17.11169215 51.84109576 -17.13561623 45.519489 -17.14598846 39.1975441 C-17.15338039 36.78538993 -17.16781497 34.37324675 -17.18939972 31.96117783 C-17.21842786 28.58302857 -17.2224356 25.20570748 -17.22058105 21.82745361 C-17.23496216 20.82979477 -17.24934326 19.83213593 -17.26416016 18.804245 C-17.23001933 13.05855086 -16.66474776 9.6692615 -12.76647949 5.14044189 C-8.57505029 1.35793262 -5.6043622 0.01954131 0 0 Z " fill="#304253" transform="translate(910.7664794921875,68.85955810546875)"/>
<path d="M0 0 C8.25 0 16.5 0 25 0 C25.0093457 2.46718506 25.01869141 4.93437012 25.02832031 7.47631836 C25.06216921 15.65078226 25.11776206 23.82499582 25.18390274 31.999259 C25.22332106 36.95272536 25.2555372 41.90601546 25.27099609 46.85961914 C25.2861999 51.64497925 25.32071135 56.42985458 25.36830902 61.21499825 C25.38308449 63.03567847 25.3910388 64.85642791 25.39188385 66.67716789 C24.95827518 81.18643731 24.95827518 81.18643731 31.51763916 93.59361267 C36.41037213 97.87459145 39.91493337 98.16938491 46.18359375 98.203125 C46.9949025 98.20882507 47.80621124 98.21452515 48.6421051 98.22039795 C50.35945327 98.22984986 52.07681959 98.23638269 53.79418945 98.24023438 C56.42366049 98.24994887 59.05235283 98.28097318 61.68164062 98.3125 C63.34895368 98.31902918 65.01627234 98.32427998 66.68359375 98.328125 C67.47116562 98.3404718 68.25873749 98.3528186 69.07017517 98.36553955 C73.14659318 98.44119919 73.14659318 98.44119919 76.70666218 96.72568035 C79.03004655 93.62562506 78.43847669 89.6709994 78.43237305 85.9387207 C78.4425647 85.01169342 78.45275635 84.08466614 78.46325684 83.12954712 C78.49348131 80.06156444 78.50266726 76.99389349 78.51171875 73.92578125 C78.52855841 71.80013483 78.54670768 69.67449842 78.56611633 67.5488739 C78.61369973 61.9511528 78.64345518 56.35347224 78.66955566 50.75561523 C78.69931911 45.04467764 78.74586388 39.33387987 78.79101562 33.62304688 C78.87714377 22.41542147 78.94289616 11.20781092 79 0 C87.25 0 95.5 0 104 0 C104.06777396 13.84743721 104.12281528 27.69476427 104.15543652 41.54232979 C104.17109297 47.97229296 104.19233123 54.40213677 104.22631836 60.83203125 C104.25891199 67.03712004 104.27685317 73.24209402 104.28463173 79.44726181 C104.29017519 81.8147449 104.30100012 84.1822217 104.31719017 86.54965591 C104.338964 89.86543615 104.34196688 93.18074182 104.34057617 96.49658203 C104.351362 97.4755394 104.36214783 98.45449677 104.3732605 99.46311951 C104.34932137 104.73718068 103.98771052 108.45763514 101 113 C95.57787192 118.30163635 90.63360896 120.23290992 83.10913086 120.29052734 C81.97031967 120.30328705 80.83150848 120.31604675 79.65818787 120.32919312 C78.43938431 120.33141876 77.22058075 120.33364441 75.96484375 120.3359375 C74.69459854 120.3425943 73.42435333 120.3492511 72.11561584 120.35610962 C69.42825298 120.366225 66.74129469 120.37179378 64.05395508 120.37060547 C60.64721175 120.37040343 57.2413135 120.39759622 53.83476925 120.43214989 C50.54482808 120.46005322 47.25488689 120.45857628 43.96484375 120.4609375 C42.15789284 120.48249405 42.15789284 120.48249405 40.31443787 120.50448608 C28.27039226 120.44064626 17.80302575 118.11663264 9.09375 109.4921875 C1.64415489 100.62494556 -0.32979659 90.19571002 -0.22705078 78.90014648 C-0.22734283 78.04051804 -0.22763489 77.18088959 -0.22793579 76.29521179 C-0.22655553 73.4870655 -0.21105646 70.67919301 -0.1953125 67.87109375 C-0.19157773 65.91097661 -0.18873295 63.95085759 -0.18673706 61.99073792 C-0.17913718 56.85662593 -0.15952031 51.72262889 -0.1373291 46.58856201 C-0.11679181 41.33965611 -0.10771855 36.09073146 -0.09765625 30.84179688 C-0.0762707 20.56113955 -0.04111859 10.28059736 0 0 Z " fill="#314253" transform="translate(266,69)"/>
<path d="M0 0 C1.27746597 0.00141495 2.55493195 0.0028299 3.87110901 0.00428772 C7.24615371 0.00892109 10.62112922 0.01788602 13.99615479 0.0289917 C17.44860236 0.03927199 20.90105712 0.04379944 24.35351562 0.04882812 C31.11200056 0.05983159 37.87044395 0.07708303 44.62890625 0.09765625 C44.62890625 6.69765625 44.62890625 13.29765625 44.62890625 20.09765625 C42.52636475 20.1116748 42.52636475 20.1116748 40.38134766 20.12597656 C35.144054 20.16607165 29.90733574 20.23188451 24.67041016 20.30517578 C22.41072014 20.33327254 20.15093392 20.35454282 17.89111328 20.36865234 C14.62873473 20.39023844 11.36749939 20.43696974 8.10546875 20.48828125 C6.60797592 20.49012421 6.60797592 20.49012421 5.08023071 20.49200439 C-2.60684572 20.64985918 -9.58655133 22.16848195 -15.7734375 26.95703125 C-23.68435049 36.69973325 -24.59363636 46.38341459 -24.66625977 58.63305664 C-24.6833355 60.6299551 -24.72720561 62.62656637 -24.77148438 64.62304688 C-24.83298351 74.1081052 -23.90600817 83.65777552 -18.18359375 91.59765625 C-10.92774306 98.04730131 -3.33611675 98.68804476 6.06640625 98.671875 C7.80833252 98.69312187 7.80833252 98.69312187 9.58544922 98.71479797 C13.26669782 98.7564909 16.94745533 98.77191016 20.62890625 98.78515625 C24.33869513 98.81418771 28.04835969 98.84863913 31.75805664 98.88764954 C34.06057085 98.91019187 36.36316267 98.92597766 38.66577148 98.93449402 C39.69774658 98.94152847 40.72972168 98.94856293 41.79296875 98.95581055 C43.16122803 98.96102974 43.16122803 98.96102974 44.55712891 98.96635437 C46.62890625 99.09765625 46.62890625 99.09765625 47.62890625 100.09765625 C47.71560057 101.58637485 47.73594119 103.07910125 47.7265625 104.5703125 C47.72172852 105.91899414 47.72172852 105.91899414 47.71679688 107.29492188 C47.70422852 108.71321289 47.70422852 108.71321289 47.69140625 110.16015625 C47.68689453 111.10955078 47.68238281 112.05894531 47.67773438 113.03710938 C47.66590735 115.3906869 47.6494265 117.74414102 47.62890625 120.09765625 C39.49164987 120.19090115 31.35462182 120.26169421 23.21696091 120.30490494 C19.43708998 120.32565836 15.65758823 120.35374713 11.87792969 120.39941406 C8.22094416 120.44331538 4.5643106 120.46688506 0.9070816 120.47716522 C-0.47859986 120.48447817 -1.86426507 120.4987553 -3.24979401 120.52057648 C-17.42641534 120.73468929 -28.73281174 117.78763111 -39.37109375 108.09765625 C-50.52938254 95.4314906 -51.7567941 77.84200254 -51.62109375 61.72265625 C-51.61360107 60.5423584 -51.6061084 59.36206055 -51.59838867 58.14599609 C-51.38007694 40.42005906 -49.4912449 23.8620479 -36.8203125 10.45703125 C-26.1924287 0.41253963 -13.79874359 -0.05778203 0 0 Z " fill="#314353" transform="translate(686.37109375,68.90234375)"/>
<path d="M0 0 C0.33 0 0.66 0 1 0 C4.27883703 25.96886972 4.27883703 25.96886972 -0.60986328 33.47021484 C-5.26559415 37.68691127 -10.9876907 40.01643754 -16.70507812 42.47558594 C-22.14354194 44.99172169 -27.14499273 48.21104439 -32.21411133 51.38705444 C-35.16132292 53.22372326 -38.13699896 55.01305727 -41.109375 56.80859375 C-50.44754051 62.47209352 -59.7288396 68.22764981 -69 74 C-57.45046408 80.72328975 -45.80061198 87.22820932 -34 93.5 C-25.20419865 98.1764827 -16.45978467 102.92766849 -7.8125 107.875 C-6.92755859 108.38095703 -6.04261719 108.88691406 -5.13085938 109.40820312 C0.85959036 112.85959036 0.85959036 112.85959036 2 114 C2.08775605 116.14558827 2.10695219 118.29404421 2.09765625 120.44140625 C2.09282227 122.39916992 2.09282227 122.39916992 2.08789062 124.39648438 C2.07953401 125.7851569 2.07106905 127.17382877 2.0625 128.5625 C2.05748666 129.95507656 2.05292347 131.34765481 2.04882812 132.74023438 C2.03699434 136.1601987 2.0205088 139.58007844 2 143 C-2.07125173 141.73663701 -5.71806631 140.22710863 -9.46484375 138.19921875 C-10.4997998 137.64113525 -11.53475586 137.08305176 -12.60107422 136.50805664 C-13.70209473 135.90727295 -14.80311523 135.30648926 -15.9375 134.6875 C-17.09266113 134.06157959 -18.24782227 133.43565918 -19.43798828 132.79077148 C-27.73373051 128.286069 -35.95569406 123.65564159 -44.15405273 118.97631836 C-50.65402977 115.28209485 -57.21494127 111.71465336 -63.81982422 108.21264648 C-66.25753061 106.91857982 -68.68231158 105.60421545 -71.09814453 104.26977539 C-76.02680349 101.56409583 -80.77860397 98.9578352 -86.109375 97.140625 C-90.32642263 95.57767318 -93.73200148 94.03457867 -96 90 C-99.33202202 79.96163747 -99.99198316 68.90952677 -96 59 C-89.68109883 51.57364952 -80.45348471 47.7472045 -71.74511719 43.77490234 C-66.23981878 41.23063568 -61.18128262 37.98588926 -56.0625 34.75 C-54.19063081 33.60637637 -52.31695239 32.46570837 -50.44140625 31.328125 C-44.26125481 27.55509577 -38.10706479 23.74061074 -31.95629883 19.91992188 C-24.06967793 15.02689987 -16.13959981 10.20628396 -8.19726562 5.40429688 C-6.80797852 4.5622168 -6.80797852 4.5622168 -5.390625 3.703125 C-4.1536084 2.95530762 -4.1536084 2.95530762 -2.89160156 2.19238281 C-1.06412774 1.13783236 -1.06412774 1.13783236 0 0 Z " fill="#304252" transform="translate(108,82)"/>
<path d="M0 0 C3.803355 1.521342 7.21296295 3.09814083 10.8046875 5.01953125 C12.49754883 5.92445312 12.49754883 5.92445312 14.22460938 6.84765625 C15.44152937 7.50237537 16.65832311 8.15732922 17.875 8.8125 C18.49769775 9.14668945 19.12039551 9.48087891 19.76196289 9.82519531 C28.99799043 14.78347137 38.14992426 19.87363769 47.25317383 25.07226562 C55.54962142 29.79122668 63.95530191 34.29506033 72.3795166 38.77981567 C81.00986818 43.37537928 89.55864151 48.06643536 98 53 C98.69178679 60.85515035 99.12052904 68.68086273 98.88671875 76.56640625 C98.85795654 77.86006104 98.82919434 79.15371582 98.79956055 80.48657227 C97.71159559 85.26730621 96.13161106 86.44332816 92.25 89.375 C90.12866211 90.41162109 90.12866211 90.41162109 88.08984375 91.0234375 C82.11379121 93.15765566 76.94070944 96.52709347 71.59640503 99.88516235 C68.57519213 101.77324598 65.52426076 103.61213 62.4765625 105.45703125 C61.22805339 106.21543253 59.97968126 106.97405936 58.73144531 107.73291016 C55.07946329 109.9519791 51.42657184 112.16954745 47.7734375 114.38671875 C46.88983047 114.92306442 46.88983047 114.92306442 45.9883728 115.47024536 C43.0613722 117.24689507 40.13414777 119.02317419 37.20654297 120.79882812 C31.54185786 124.23557937 25.88287336 127.6812484 20.234375 131.14453125 C19.17130127 131.79526611 18.10822754 132.44600098 17.01293945 133.11645508 C15.01251617 134.34160913 13.0135721 135.56918283 11.01635742 136.79956055 C9.69148315 137.61034058 9.69148315 137.61034058 8.33984375 138.4375 C7.18536743 139.14712891 7.18536743 139.14712891 6.00756836 139.87109375 C4 141 4 141 1 142 C-0.63146472 132.11467533 -2.01785012 121.71969353 1 112 C6.58844108 104.91405188 15.40635889 101.38295273 23.44677734 97.69726562 C28.84715418 95.11767103 33.82304061 91.94456371 38.875 88.75 C40.73692276 87.61022561 42.60148497 86.47475103 44.46875 85.34375 C45.37625 84.79332031 46.28375 84.24289063 47.21875 83.67578125 C50.08624815 81.94803307 52.9632457 80.23721712 55.84375 78.53125 C57.24004639 77.70222168 57.24004639 77.70222168 58.66455078 76.85644531 C60.43101436 75.80948708 62.20010447 74.76694391 63.97216797 73.72949219 C64.75221191 73.26704102 65.53225586 72.80458984 66.3359375 72.328125 C67.02220215 71.9249707 67.7084668 71.52181641 68.41552734 71.10644531 C70.16150855 70.07471944 70.16150855 70.07471944 71 68 C70.29834717 67.73445313 69.59669434 67.46890625 68.8737793 67.1953125 C65.80918509 65.92063293 62.94373135 64.44516286 60.01953125 62.875 C58.86453125 62.25592773 57.70953125 61.63685547 56.51953125 60.99902344 C55.28376609 60.33284564 54.04809088 59.66650097 52.8125 59 C51.53910012 58.31535972 50.26566235 57.6307899 48.9921875 56.94628906 C40.74209975 52.50596904 32.52749341 48.005129 24.3515625 43.4296875 C16.26232855 38.90289319 8.12459613 34.46280632 0 30 C0 20.1 0 10.2 0 0 Z " fill="#304252" transform="translate(123,40)"/>
<path d="M0 0 C1.02480469 -0.01998047 2.04960938 -0.03996094 3.10546875 -0.06054688 C13.04907639 -0.05422946 21.12686408 2.57750868 28.43359375 9.44140625 C35.73050748 18.05277558 35.35701135 28.75933919 35.4375 39.4375 C35.48100586 41.31501953 35.48100586 41.31501953 35.52539062 43.23046875 C35.5989703 54.15422087 34.07704351 65.16364379 26.81640625 73.7890625 C18.58794758 81.80848411 9.14300434 82.80078932 -1.921875 82.73803711 C-11.41021523 82.48899051 -19.0158815 80.17413424 -25.875 73.4375 C-33.19901981 64.74022647 -34.40339976 53.59884657 -34.25 42.625 C-34.24057373 41.57763672 -34.23114746 40.53027344 -34.22143555 39.45117188 C-33.97046644 26.51676388 -32.53890846 15.10140846 -23.0625 5.625 C-15.5679259 0.48166483 -8.86221187 -0.06085164 0 0 Z " fill="#ffffff" transform="translate(811.875,87.5625)"/>
<path d="M0 0 C8.25 0 16.5 0 25 0 C25.02254742 15.4984013 25.04097941 30.99679453 25.05181217 46.49520779 C25.05697503 53.69090295 25.06401753 60.88658722 25.07543945 68.08227539 C25.0853866 74.35184694 25.0918535 80.62141061 25.09408849 86.89098984 C25.09539555 90.21265621 25.09899997 93.53429466 25.10573006 96.85595512 C25.11293628 100.55819947 25.11399112 104.26039631 25.11352539 107.96264648 C25.11712067 109.07178909 25.12071594 110.1809317 25.12442017 111.32368469 C25.1230455 112.32634369 25.12167084 113.32900269 25.12025452 114.36204529 C25.12117631 115.23867042 25.1220981 116.11529554 25.12304783 117.01848507 C25 119 25 119 24 120 C16.08 120 8.16 120 0 120 C0 80.4 0 40.8 0 0 Z " fill="#324355" transform="translate(584,69)"/>
<path d="M0 0 C0 10.23 0 20.46 0 31 C-9.375 36.125 -9.375 36.125 -12.26318359 37.69970703 C-18.26586121 40.99165654 -24.14482737 44.45379542 -30 48 C-42.80696013 55.64656159 -55.6902896 63.15827703 -68.62304688 70.58984375 C-73.55043952 73.42331728 -78.4701471 76.2663408 -83.35546875 79.171875 C-84.14977295 79.64407471 -84.94407715 80.11627441 -85.76245117 80.6027832 C-87.21157084 81.46719534 -88.65850154 82.33529212 -90.1027832 83.20776367 C-94.78220276 86 -94.78220276 86 -97 86 C-97 76.1 -97 66.2 -97 56 C-92.936875 53.69 -88.87375 51.38 -84.6875 49 C-73.78417302 42.78452124 -62.96174344 36.44926561 -52.18188477 30.02148438 C-42.76384407 24.41945097 -33.26431508 18.96989433 -23.72460938 13.578125 C-16.876083 9.69498199 -10.14927001 5.6669874 -3.47998047 1.48632812 C-1 0 -1 0 0 0 Z " fill="#72161A" transform="translate(109,39)"/>
<path d="M0 0 C0 9.9 0 19.8 0 30 C-3.75375 32.165625 -7.5075 34.33125 -11.375 36.5625 C-12.63997314 37.29243164 -13.90494629 38.02236328 -15.20825195 38.77441406 C-21.11020731 42.17996861 -27.01301798 45.58401658 -32.91796875 48.984375 C-46.70750559 56.92706773 -60.46414842 64.9176174 -74.13819885 73.05757141 C-76.6339593 74.54295211 -79.13060273 76.02684582 -81.62722778 77.51077271 C-83.47836143 78.61212588 -85.32794846 79.71604461 -87.17749023 80.82006836 C-88.86853882 81.82565796 -88.86853882 81.82565796 -90.59375 82.8515625 C-91.61146484 83.45822754 -92.62917969 84.06489258 -93.67773438 84.68994141 C-96 86 -96 86 -97 86 C-97.22359275 81.83773496 -97.38625784 77.67869784 -97.49438477 73.51220703 C-97.5394723 72.09752509 -97.60076961 70.68325869 -97.67895508 69.27001953 C-98.3041726 57.67284754 -98.3041726 57.67284754 -95.40917969 53.95947266 C-93.02540139 52.33347691 -90.63095844 51.18435874 -88 50 C-85.97338414 48.8400524 -83.95564496 47.66450765 -81.9453125 46.4765625 C-80.26432527 45.52477799 -78.58327839 44.57309196 -76.90008545 43.62521362 C-73.79820615 41.87738682 -70.70343731 40.11708754 -67.609375 38.35546875 C-66.97466278 37.99411331 -66.33995056 37.63275787 -65.68600464 37.26045227 C-59.20424182 33.5610436 -52.78631317 29.75771494 -46.375 25.9375 C-34.159019 18.66021938 -21.8618848 11.53491335 -9.52587891 4.46362305 C-7.76534942 3.44348248 -6.02388017 2.39003537 -4.29833984 1.31176758 C-2 0 -2 0 0 0 Z " fill="#72161A" transform="translate(221,140)"/>
<path d="M0 0 C8.25 0 16.5 0 25 0 C25 6.93 25 13.86 25 21 C16.75 21 8.5 21 0 21 C0 14.07 0 7.14 0 0 Z " fill="#344455" transform="translate(584,31)"/>
<path d="M0 0 C0.66 0 1.32 0 2 0 C2 35.31 2 70.62 2 107 C1.34 107 0.68 107 0 107 C-1.05714259 101.81735175 -1.14166226 96.84763467 -1.12939453 91.58569336 C-1.13114685 90.65650589 -1.13289917 89.72731842 -1.13470459 88.76997375 C-1.13909257 85.70991122 -1.1361961 82.64990684 -1.1328125 79.58984375 C-1.13348636 77.45805348 -1.13445707 75.32626328 -1.13571167 73.19447327 C-1.13718446 68.73177355 -1.13504732 64.26909387 -1.13037109 59.80639648 C-1.12467061 54.08768845 -1.1279575 48.36902732 -1.13394356 42.65032101 C-1.13755751 38.25028632 -1.1364068 33.85026276 -1.13381577 29.45022774 C-1.13314899 27.34150754 -1.13396622 25.23278633 -1.13629532 23.12406731 C-1.13883586 20.17765504 -1.13496155 17.23131872 -1.12939453 14.28491211 C-1.13141876 13.41464386 -1.13344299 12.54437561 -1.13552856 11.6477356 C-1.12147828 7.63188725 -1.00418014 3.91881939 0 0 Z " fill="none" transform="translate(892,82)"/>
<path d="M0 0 C0.66 0 1.32 0 2 0 C2.95282222 8.16800672 3.12395111 16.26940538 3.07516479 24.48307037 C3.06216552 26.69760598 3.0558261 28.91208021 3.05102539 31.12664795 C3.03779627 36.62627351 3.01364648 42.12584012 2.98962402 47.62542725 C2.96968038 52.28515059 2.95412896 56.94485117 2.94406128 61.60460663 C2.93770899 63.75730093 2.92520444 65.90989735 2.91235352 68.06256104 C2.87075032 79.07488154 3.03489158 90.13697349 5 101 C-0.49113291 95.25927014 -0.29512973 86.38453967 -0.22705078 78.90014648 C-0.22734283 78.04051804 -0.22763489 77.18088959 -0.22793579 76.29521179 C-0.22655553 73.4870655 -0.21105646 70.67919301 -0.1953125 67.87109375 C-0.19157773 65.91097661 -0.18873295 63.95085759 -0.18673706 61.99073792 C-0.17913718 56.85662593 -0.15952031 51.72262889 -0.1373291 46.58856201 C-0.11679181 41.33965611 -0.10771855 36.09073146 -0.09765625 30.84179688 C-0.07627072 20.56114769 -0.04217921 10.28058344 0 0 Z " fill="none" transform="translate(266,69)"/>
<path d="M0 0 C0.33 1.32 0.66 2.64 1 4 C8.92 4 16.84 4 25 4 C25 4.33 25 4.66 25 5 C17.08 5 9.16 5 1 5 C1 44.27 1 83.54 1 124 C0.67 124 0.34 124 0 124 C-0.77062046 120.58142785 -1.12545608 117.42738455 -1.12698364 113.92572021 C-1.12980347 112.92742187 -1.13262329 111.92912354 -1.13552856 110.90057373 C-1.13249222 109.27481415 -1.13249222 109.27481415 -1.12939453 107.61621094 C-1.13114685 106.46616577 -1.13289917 105.31612061 -1.13470459 104.13122559 C-1.13910396 100.33226002 -1.13619259 96.53334103 -1.1328125 92.734375 C-1.1334859 90.09832755 -1.13445623 87.46228015 -1.13571167 84.82623291 C-1.13752897 79.30504857 -1.13513749 73.78387762 -1.13037109 68.26269531 C-1.12491853 61.87274919 -1.12670008 55.48283491 -1.1321975 49.09288955 C-1.13727315 42.94780919 -1.13674799 36.80274301 -1.13381577 30.65766144 C-1.13314649 28.04044846 -1.13397494 25.42323468 -1.13629532 22.80602264 C-1.13881959 19.15939642 -1.13498495 15.51283249 -1.12939453 11.86621094 C-1.13141876 10.77427429 -1.13344299 9.68233765 -1.13552856 8.55731201 C-1.13270874 7.57029297 -1.12988892 6.58327393 -1.12698364 5.56634521 C-1.12660662 4.70358852 -1.12622959 3.84083183 -1.12584114 2.951931 C-1 1 -1 1 0 0 Z " fill="none" transform="translate(583,64)"/>
<path d="M0 0 C1.6874269 0.00015917 3.37485866 0.00585622 5.06225586 0.01586914 C6.39189613 0.01799156 6.39189613 0.01799156 7.74839783 0.02015686 C10.59133215 0.02577324 13.43418892 0.03832848 16.27709961 0.05102539 C18.19962452 0.05603828 20.12215065 0.06060155 22.04467773 0.06469727 C26.7680151 0.07574798 31.49129419 0.09302356 36.21459961 0.11352539 C36.21459961 0.44352539 36.21459961 0.77352539 36.21459961 1.11352539 C35.07394043 1.12810791 33.93328125 1.14269043 32.75805664 1.15771484 C28.53475244 1.21559266 24.31198736 1.29282516 20.08911133 1.37597656 C18.25977311 1.40927565 16.43033091 1.43729196 14.60083008 1.45996094 C11.97423904 1.49341616 9.3486052 1.54572502 6.72241211 1.60180664 C5.90153107 1.60819656 5.08065002 1.61458649 4.2348938 1.62117004 C1.68845587 1.65294756 1.68845587 1.65294756 -1.78540039 2.11352539 C-4.42092203 6.06680785 -4.09282463 9.49191175 -4.10424805 14.08300781 C-4.11429367 15.00028152 -4.12433929 15.91755524 -4.13468933 16.86262512 C-4.16560897 19.89807502 -4.18258089 22.93343637 -4.19946289 25.96899414 C-4.21816747 28.07221747 -4.23774034 30.17543325 -4.25814819 32.27864075 C-4.30955038 37.81716462 -4.34913283 43.35571284 -4.3862915 48.89434814 C-4.42628048 54.54494287 -4.47739609 60.19543559 -4.52758789 65.84594727 C-4.62444292 76.9350684 -4.70881704 88.02424703 -4.78540039 99.11352539 C-5.44540039 99.11352539 -6.10540039 99.11352539 -6.78540039 99.11352539 C-6.83175819 87.22185609 -6.86728717 75.33020832 -6.88902473 63.43846703 C-6.89945811 57.91654644 -6.91360928 52.39468772 -6.9362793 46.87280273 C-6.95802341 41.54304013 -6.96997238 36.21333701 -6.97515488 30.88353348 C-6.9788478 28.85098967 -6.98605913 26.81844909 -6.9968605 24.78593063 C-7.01139615 21.93721249 -7.01337745 19.08873955 -7.01245117 16.23999023 C-7.01964172 15.40129395 -7.02683228 14.56259766 -7.03424072 13.69848633 C-6.98683797 0.20953755 -6.98683797 0.20953755 0 0 Z " fill="none" transform="translate(924.785400390625,88.886474609375)"/>
<path d="M0 0 C0.33 1.32 0.66 2.64 1 4 C8.92 4 16.84 4 25 4 C25 4.33 25 4.66 25 5 C17.08 5 9.16 5 1 5 C1 32.39 1 59.78 1 88 C0.34 87.67 -0.32 87.34 -1 87 C-1.02312269 75.80426756 -1.04091471 64.60854076 -1.05181217 53.41278934 C-1.05704116 48.21471885 -1.0641391 43.01666464 -1.07543945 37.81860352 C-1.08626776 32.80657732 -1.09227671 27.79456682 -1.09487724 22.78252983 C-1.09673159 20.86587718 -1.1003524 18.94922543 -1.10573006 17.03257942 C-1.11293975 14.35771928 -1.11399097 11.68292486 -1.11352539 9.00805664 C-1.11712067 8.2074884 -1.12071594 7.40692017 -1.12442017 6.58209229 C-1.11405216 1.11405216 -1.11405216 1.11405216 0 0 Z " fill="none" transform="translate(265,64)"/>
<path d="M0 0 C0.66 0 1.32 0 2 0 C3.90223635 4.79890247 4.27624683 9.11009086 4.22705078 14.20849609 C4.22734283 15.00916504 4.22763489 15.80983398 4.22793579 16.63476562 C4.22654955 19.26443561 4.21102179 21.8938174 4.1953125 24.5234375 C4.19157986 26.35332077 4.18873407 28.18320605 4.18673706 30.01309204 C4.17912039 34.81680877 4.15948882 39.62040354 4.1373291 44.42407227 C4.11682827 49.33087515 4.10772629 54.23769784 4.09765625 59.14453125 C4.07624104 68.76307426 4.04212888 78.38152697 4 88 C3.34 88 2.68 88 2 88 C1.98969254 87.00077011 1.97938507 86.00154022 1.96876526 84.97203064 C1.87087861 75.54110429 1.76813062 66.11024167 1.66066074 56.67941952 C1.60556881 51.83130523 1.55217133 46.98318478 1.50268555 42.13500977 C1.45483878 37.45358306 1.4024897 32.7722261 1.34705925 28.09088326 C1.3267274 26.30759996 1.30799971 24.52429761 1.29092598 22.74098015 C1.26667775 20.23732519 1.23665281 17.73379961 1.20532227 15.23022461 C1.1995668 14.49798172 1.19381134 13.76573883 1.18788147 13.01130676 C1.12505971 8.5755862 0.71247175 4.36639162 0 0 Z " fill="none" transform="translate(535,100)"/>
<path d="M0 0 C0.33 0 0.66 0 1 0 C1.33 28.38 1.66 56.76 2 86 C1.01 86 0.02 86 -1 86 C-1.02321876 75.96823366 -1.04096359 65.93647376 -1.05181217 55.90468597 C-1.05702018 51.24601794 -1.06407987 46.58736836 -1.07543945 41.92871094 C-1.08634251 37.42887695 -1.09229251 32.92906066 -1.09487724 28.42921448 C-1.09671815 26.7165143 -1.10031291 25.00381504 -1.10573006 23.29112244 C-1.11303905 20.88351382 -1.11398681 18.47597739 -1.11352539 16.06835938 C-1.11712067 15.36776398 -1.12071594 14.66716858 -1.12442017 13.94534302 C-1.11466059 9.20776745 -0.6600004 4.68078668 0 0 Z " fill="none" transform="translate(290,69)"/>
<path d="M0 0 C0.33 0 0.66 0 1 0 C1.06943244 12.07384494 1.12277691 24.14764258 1.15543652 36.22164631 C1.17110947 41.82776745 1.19237755 47.43375226 1.22631836 53.03979492 C1.25885356 58.44735751 1.27684073 63.85478875 1.28463173 69.26244164 C1.29018574 71.32817847 1.30103101 73.39390791 1.31719017 75.459589 C1.33888675 78.34732365 1.34197018 81.23451175 1.34057617 84.12231445 C1.351362 84.98114731 1.36214783 85.83998016 1.3732605 86.72483826 C1.34241803 92.60795485 1.34241803 92.60795485 -0.52254772 94.7432127 C-1.01010697 95.15795251 -1.49766623 95.57269232 -2 96 C-2.33 95.01 -2.66 94.02 -3 93 C-2.54580185 92.18399323 -2.54580185 92.18399323 -2.08242798 91.35150146 C-0.44883722 87.80263619 -0.69128709 84.21293406 -0.68115234 80.37597656 C-0.66608391 79.07299873 -0.66608391 79.07299873 -0.65071106 77.74369812 C-0.61985057 74.87601373 -0.60283592 72.00842283 -0.5859375 69.140625 C-0.56722816 67.15093174 -0.54765493 65.16124644 -0.5272522 63.17156982 C-0.47590028 57.9372018 -0.43629087 52.70280805 -0.39910889 47.46832275 C-0.35908847 42.12595233 -0.30798717 36.78368924 -0.2578125 31.44140625 C-0.16101695 20.96101286 -0.07662371 10.48055892 0 0 Z " fill="none" transform="translate(344,71)"/>
<path d="M0 0 C0.33 0 0.66 0 1 0 C1.02688151 1.64574566 1.04634123 3.29161413 1.0625 4.9375 C1.07410156 5.85402344 1.08570313 6.77054687 1.09765625 7.71484375 C1 10 1 10 0 11 C-0.09295815 12.44289787 -0.11746513 13.89029785 -0.11352539 15.33618164 C-0.11344986 16.2570607 -0.11337433 17.17793976 -0.11329651 18.12672424 C-0.10813522 19.12775681 -0.10297394 20.12878937 -0.09765625 21.16015625 C-0.0962413 22.17975937 -0.09482635 23.19936249 -0.09336853 24.24986267 C-0.08775097 27.52077107 -0.0751955 30.79161213 -0.0625 34.0625 C-0.05748726 36.27408756 -0.05292396 38.48567618 -0.04882812 40.69726562 C-0.03777584 46.13153357 -0.02102063 51.56576197 0 57 C-0.33 57 -0.66 57 -1 57 C-4.26433129 41.23211403 -7.45237634 14.90475268 0 0 Z " fill="none" transform="translate(756,99)"/>
<path d="M0 0 C0.66 0 1.32 0 2 0 C1.85852539 0.61931396 1.71705078 1.23862793 1.57128906 1.87670898 C-0.10634342 9.97371811 -0.29932165 17.81345424 -0.25 26.0625 C-0.25773438 27.35994141 -0.26546875 28.65738281 -0.2734375 29.99414062 C-0.25875545 37.2360608 0.1883446 43.97519269 2 51 C0.68 51 -0.64 51 -2 51 C-2 46.71 -2 42.42 -2 38 C-2.66 38 -3.32 38 -4 38 C-3.835 36.741875 -3.67 35.48375 -3.5 34.1875 C-2.70914369 26.45715808 -2.91520636 18.68657526 -2.98413086 10.92602539 C-3.02124317 6.42173328 -2.1337476 4.00077676 0 0 Z " fill="none" transform="translate(662,104)"/>
<path d="M0 0 C0.99 0.33 1.98 0.66 3 1 C5.43927867 8.44836597 5.34004807 16.04555819 5.31567383 23.8137207 C5.31246983 25.95769136 5.33619874 28.1003355 5.36132812 30.24414062 C5.36359736 31.60937327 5.36430636 32.9746096 5.36328125 34.33984375 C5.36775269 36.18630493 5.36775269 36.18630493 5.37231445 38.07006836 C5.24945068 39.0369458 5.12658691 40.00382324 5 41 C4.01 41.66 3.02 42.32 2 43 C2.01047363 42.0527002 2.02094727 41.10540039 2.03173828 40.12939453 C2.06609637 36.56963603 2.09103202 33.01005719 2.10986328 29.45019531 C2.11983806 27.91794022 2.13342276 26.38570375 2.15087891 24.85351562 C2.24479186 16.39030162 2.25042199 8.23801601 0 0 Z " fill="none" transform="translate(844,103)"/>
<path d="M0 0 C0.99 0.33 1.98 0.66 3 1 C0.38485683 3.12038635 -2.19637616 5.13091744 -5 7 C-5.41678607 9.51896074 -5.41678607 9.51896074 -5.29296875 12.4453125 C-5.28330078 13.52167969 -5.27363281 14.59804687 -5.26367188 15.70703125 C-5.23853516 16.83496094 -5.21339844 17.96289062 -5.1875 19.125 C-5.17396484 20.26066406 -5.16042969 21.39632812 -5.14648438 22.56640625 C-5.11104319 25.37807387 -5.06163517 28.18880417 -5 31 C-4.34 31 -3.68 31 -3 31 C-2.67 30.01 -2.34 29.02 -2 28 C1.00791911 25.95891203 3.42195344 25.80121964 7 26 C4.72402354 28.49552403 2.39278822 30.06622986 -0.5625 31.6875 C-1.34753906 32.12449219 -2.13257813 32.56148437 -2.94140625 33.01171875 C-5 34 -5 34 -7 34 C-7 24.1 -7 14.2 -7 4 C-4.69 2.68 -2.38 1.36 0 0 Z " fill="#6A1E26" transform="translate(19,91)"/>
<path d="M0 0 C0 10.23 0 20.46 0 31 C-0.99 31.33 -1.98 31.66 -3 32 C-2.67 22.76 -2.34 13.52 -2 4 C-2.66 4 -3.32 4 -4 4 C-4 3.34 -4 2.68 -4 2 C-1 0 -1 0 0 0 Z " fill="#7A3A3F" transform="translate(109,39)"/>
<path d="M0 0 C-8.261959 7.66742597 -8.261959 7.66742597 -13 9 C-12.70540991 5.46491897 -12.25118587 4.23796556 -9.625 1.75 C-6.00526543 -0.66315638 -4.09943065 -1.2722371 0 0 Z " fill="none" transform="translate(417,70)"/>
<path d="M0 0 C0.33 0.99 0.66 1.98 1 3 C-0.32 3.33 -1.64 3.66 -3 4 C-3 5.65 -3 7.3 -3 9 C-3.99 8.67 -4.98 8.34 -6 8 C-9.15020361 8.88319294 -9.15020361 8.88319294 -12 10 C-12 9.01 -12 8.02 -12 7 C-9.375 5.17578125 -9.375 5.17578125 -6 3.3125 C-4.88625 2.68988281 -3.7725 2.06726563 -2.625 1.42578125 C-1.75875 0.95527344 -0.8925 0.48476562 0 0 Z " fill="#702429" transform="translate(219,140)"/>
<path d="M0 0 C0.66 1.32 1.32 2.64 2 4 C-1.75 9.875 -1.75 9.875 -4 11 C-6.32914823 11.36141955 -8.66253478 11.69699525 -11 12 C-8.80161026 9.80161026 -6.59978365 7.60931261 -4.375 5.4375 C-1.89526499 3.04154383 -1.89526499 3.04154383 0 0 Z " fill="none" transform="translate(842,155)"/>
<path d="M0 0 C-0.99 0 -1.98 0 -3 0 C-3.33 0.66 -3.66 1.32 -4 2 C-7.05154419 5.05154419 -8.43112175 5.96269651 -12.8125 6.25 C-13.864375 6.1675 -14.91625 6.085 -16 6 C-13.75539393 3.50439964 -11.61479403 2.1294516 -8.5625 0.75 C-7.80066406 0.39421875 -7.03882813 0.0384375 -6.25390625 -0.328125 C-3.72027666 -1.08338373 -2.45814874 -0.87351072 0 0 Z " fill="none" transform="translate(670,71)"/>
<path d="M0 0 C0.33 0 0.66 0 1 0 C0.58955515 6.57791873 0.13391403 12.74051886 -2 19 C-3.03953312 15.68599967 -3.0046621 12.94617926 -2.6875 9.5 C-2.60886719 8.5615625 -2.53023437 7.623125 -2.44921875 6.65625 C-2.01072654 4.06342647 -1.30741493 2.26262828 0 0 Z " fill="none" transform="translate(871,140)"/>
<path d="M0 0 C-2.27597646 2.49552403 -4.60721178 4.06622986 -7.5625 5.6875 C-8.34753906 6.12449219 -9.13257813 6.56148438 -9.94140625 7.01171875 C-12 8 -12 8 -14 8 C-13.67 7.01 -13.34 6.02 -13 5 C-12.01 5 -11.02 5 -10 5 C-9.67 4.01 -9.34 3.02 -9 2 C-5.99208089 -0.04108797 -3.57804656 -0.19878036 0 0 Z " fill="#70262D" transform="translate(26,117)"/>
<path d="M0 0 C0.33 0 0.66 0 1 0 C1.27018742 7.46017494 1.26429585 13.60355623 -3 20 C-2.69215623 17.04111327 -2.37894426 14.08296833 -2.0625 11.125 C-1.97548828 10.28324219 -1.88847656 9.44148438 -1.79882812 8.57421875 C-1.71181641 7.76855469 -1.62480469 6.96289062 -1.53515625 6.1328125 C-1.456604 5.38918457 -1.37805176 4.64555664 -1.29711914 3.87939453 C-1 2 -1 2 0 0 Z " fill="none" transform="translate(756,99)"/>
<path d="M0 0 C1.32 0 2.64 0 4 0 C4.0825 0.94875 4.165 1.8975 4.25 2.875 C4.65074923 6.10461791 4.65074923 6.10461791 7.0625 7.375 C7.701875 7.58125 8.34125 7.7875 9 8 C8.67 8.99 8.34 9.98 8 11 C6.66072279 9.54712339 5.32873153 8.08752741 4 6.625 C3.2575 5.81289062 2.515 5.00078125 1.75 4.1640625 C0 2 0 2 0 0 Z " fill="none" transform="translate(271,171)"/>
<path d="M0 0 C2.73704754 2.73704754 3.16182449 5.26044774 4 9 C3.625 11.4375 3.625 11.4375 3 13 C3 12.34 3 11.68 3 11 C2.01 11.33 1.02 11.66 0 12 C-1.31157516 9.37684968 -0.89649988 7.76966564 -0.5625 4.875 C-0.46066406 3.96492187 -0.35882812 3.05484375 -0.25390625 2.1171875 C-0.17011719 1.41851562 -0.08632813 0.71984375 0 0 Z " fill="none" transform="translate(777,140)"/>
<path d="M0 0 C3.22722983 6.15272679 3.13602083 12.1989587 3 19 C0.62712736 14.41244623 -0.1181816 10.99088862 -0.0625 5.8125 C-0.05347656 4.72582031 -0.04445313 3.63914063 -0.03515625 2.51953125 C-0.02355469 1.68808594 -0.01195312 0.85664063 0 0 Z " fill="none" transform="translate(661,133)"/>
<path d="M0 0 C-2.36292656 2.52588702 -3.66462511 3.88820837 -7 5 C-7.66 3.68 -8.32 2.36 -9 1 C-5.64919071 -1.10976881 -3.77897651 -1.0497157 0 0 Z " fill="#711D24" transform="translate(99,74)"/>
<path d="M0 0 C0 0.66 0 1.32 0 2 C-5.01907969 6.08529742 -5.01907969 6.08529742 -8.875 5.75 C-9.57625 5.5025 -10.2775 5.255 -11 5 C-11 4.34 -11 3.68 -11 3 C-9.54293274 2.49632243 -8.08429904 1.99717444 -6.625 1.5 C-5.81289063 1.2215625 -5.00078125 0.943125 -4.1640625 0.65625 C-2 0 -2 0 0 0 Z " fill="none" transform="translate(837,165)"/>
<path d="M0 0 C-4.95 2.475 -4.95 2.475 -10 5 C-10 4.01 -10 3.02 -10 2 C-10.66 1.67 -11.32 1.34 -12 1 C-7.83674659 -1.08162671 -4.46550674 -1.11637668 0 0 Z " fill="#712328" transform="translate(190,188)"/>
<path d="M0 0 C0 3 0 3 -2.375 5.625 C-5 8 -5 8 -7 9 C-7.33 7.68 -7.66 6.36 -8 5 C-4.04 2.525 -4.04 2.525 0 0 Z " fill="none" transform="translate(76,102)"/>
<path d="M0 0 C0.99 0.33 1.98 0.66 3 1 C3.94921875 2.99609375 3.94921875 2.99609375 4.6875 5.4375 C4.93886719 6.24058594 5.19023438 7.04367188 5.44921875 7.87109375 C6 10 6 10 6 12 C5.34 12 4.68 12 4 12 C2.66666667 8 1.33333333 4 0 0 Z " fill="none" transform="translate(554,84)"/>
<path d="M0 0 C-0.33 0.99 -0.66 1.98 -1 3 C-1.99 3 -2.98 3 -4 3 C-4 3.99 -4 4.98 -4 6 C-6.31 6.33 -8.62 6.66 -11 7 C-4.36842105 0 -4.36842105 0 0 0 Z " fill="none" transform="translate(778,73)"/>
<path d="M0 0 C5.75 0.875 5.75 0.875 8 2 C7.67 3.32 7.34 4.64 7 6 C4.50638429 4.79618552 2.31856917 3.54571278 0 2 C0 1.34 0 0.68 0 0 Z " fill="none" transform="translate(648,176)"/>
<path d="M0 0 C2.97 0.495 2.97 0.495 6 1 C6.103125 1.639375 6.20625 2.27875 6.3125 2.9375 C6.539375 3.618125 6.76625 4.29875 7 5 C7.99 5.33 8.98 5.66 10 6 C10 6.66 10 7.32 10 8 C6.05205855 6.32971708 3.18203882 3.8204435 0 1 C0 0.67 0 0.34 0 0 Z " fill="none" transform="translate(834,92)"/>
<path d="M0 0 C1.98 0.99 1.98 0.99 4 2 C4 2.66 4 3.32 4 4 C4.99 4.33 5.98 4.66 7 5 C7.6875 7.0625 7.6875 7.0625 8 9 C7.01 9 6.02 9 5 9 C3.35 6.03 1.7 3.06 0 0 Z " fill="none" transform="translate(759,166)"/>
<path d="M0 0 C0.66 0.33 1.32 0.66 2 1 C-2.75 5 -2.75 5 -5 5 C-5.33 5.66 -5.66 6.32 -6 7 C-7.32 6.67 -8.64 6.34 -10 6 C-8.3811004 4.96951963 -6.75467511 3.95085322 -5.125 2.9375 C-4.22007812 2.36902344 -3.31515625 1.80054688 -2.3828125 1.21484375 C-1.20332031 0.61349609 -1.20332031 0.61349609 0 0 Z " fill="none" transform="translate(159,205)"/>
<path d="M0 0 C0.928125 0.2784375 0.928125 0.2784375 1.875 0.5625 C4.04160178 1.23686176 4.04160178 1.23686176 6 0 C6 0.99 6 1.98 6 3 C4.02 3.99 2.04 4.98 0 6 C0 4 0 2 0 0 Z " fill="#752127" transform="translate(196,178)"/>
<path d="M0 0 C1.32 0.33 2.64 0.66 4 1 C4 1.66 4 2.32 4 3 C0.04 4.98 0.04 4.98 -4 7 C-3.67 5.68 -3.34 4.36 -3 3 C-2.01 3 -1.02 3 0 3 C0 2.01 0 1.02 0 0 Z " fill="#74262C" transform="translate(212,170)"/>
<path d="M0 0 C-3.5087188 3.09592835 -6.49197399 4.74194623 -11 6 C-8.34806708 2.26764996 -4.95872866 -2.47936433 0 0 Z " fill="none" transform="translate(908,70)"/>
<path d="M0 0 C0.99 0.33 1.98 0.66 3 1 C3.33 4.96 3.66 8.92 4 13 C1.99706653 9.99559979 1.50728374 8.29006055 0.875 4.8125 C0.70742188 3.91144531 0.53984375 3.01039062 0.3671875 2.08203125 C0.24601563 1.39496094 0.12484375 0.70789063 0 0 Z " fill="none" transform="translate(844,103)"/>
<path d="M0 0 C0.66 0.33 1.32 0.66 2 1 C2 1.66 2 2.32 2 3 C-1.4352048 5.29013653 -2.985331 5.17842973 -7 5 C-4.702779 3.25728062 -2.40133271 1.60088848 0 0 Z " fill="#71262D" transform="translate(181,162)"/>
<path d="M0 0 C3.375 0.3125 3.375 0.3125 7 1 C7.66 1.99 8.32 2.98 9 4 C8.01 4.495 8.01 4.495 7 5 C4.5249829 3.88568235 2.32116581 2.41849022 0 1 C0 0.67 0 0.34 0 0 Z " fill="none" transform="translate(180,100)"/>
<path d="M0 0 C0.66 0.33 1.32 0.66 2 1 C1.67 1.61875 1.34 2.2375 1 2.875 C-0.14193235 4.91018344 -0.14193235 4.91018344 0 7 C-1.98 7 -3.96 7 -6 7 C-4.02 4.69 -2.04 2.38 0 0 Z " fill="none" transform="translate(652,77)"/>
<path d="M0 0 C0.99 0 1.98 0 3 0 C1.9024777 2.99324263 1.32317108 3.84610901 -1.625 5.25 C-2.40875 5.4975 -3.1925 5.745 -4 6 C-2.84826645 3.53199953 -1.95216435 1.95216435 0 0 Z " fill="none" transform="translate(176,147)"/>
<path d="M0 0 C0.33 0.66 0.66 1.32 1 2 C-1.45614035 7 -1.45614035 7 -3 9 C-3.99 9.33 -4.98 9.66 -6 10 C-4.6302836 6.00499382 -2.74277578 3.19990508 0 0 Z " fill="none" transform="translate(766,80)"/>
<path d="M0 0 C0.66 0 1.32 0 2 0 C1.34 1.98 0.68 3.96 0 6 C-1.32 6 -2.64 6 -4 6 C-2.84826645 3.53199953 -1.95216435 1.95216435 0 0 Z " fill="none" transform="translate(367,181)"/>
<path d="M0 0 C1.65 0.33 3.3 0.66 5 1 C0.25 4.875 0.25 4.875 -2 6 C-2 5.01 -2 4.02 -2 3 C-1.34 3 -0.68 3 0 3 C0 2.01 0 1.02 0 0 Z " fill="none" transform="translate(672,90)"/>
<path d="M0 0 C0.99 0.33 1.98 0.66 3 1 C1.02 3.97 1.02 3.97 -1 7 C-1.66 6.01 -2.32 5.02 -3 4 C-2.01 2.68 -1.02 1.36 0 0 Z " fill="none" transform="translate(763,80)"/>
<path d="M0 0 C1.32 0 2.64 0 4 0 C4.66 1.32 5.32 2.64 6 4 C5.01 4.495 5.01 4.495 4 5 C2 3.625 2 3.625 0 2 C0 1.34 0 0.68 0 0 Z " fill="none" transform="translate(54,193)"/>
<path d="M0 0 C1.125 3.75 1.125 3.75 0 6 C-0.66 6 -1.32 6 -2 6 C-2 6.99 -2 7.98 -2 9 C-2.66 9 -3.32 9 -4 9 C-2.94124926 5.59687262 -1.99097846 2.98646769 0 0 Z " fill="none" transform="translate(645,84)"/>
</svg>
